inDegrees=no
num_controls=7
num_derivatives=13
num_iterations=94
num_multipliers=7
num_parameters=0
num_slacks=7
num_states=26
objective=0.448477
objective_accelerations=0.049424
objective_balance=0.007923
objective_effort=0.037443
objective_height=0.348747
objective_ligament=0.004940
solver_duration=1375.856216
status=Solve_Succeeded
success=true
DataType=double
version=3
OpenSimVersion=4.5
endheader
time	/jointset/ground_pelvis/pelvis_tilt/value	/jointset/ground_pelvis/pelvis_tx/value	/jointset/ground_pelvis/pelvis_ty/value	/jointset/hip_l/hip_flexion_l/value	/jointset/hip_l/hip_adduction_l/value	/jointset/hip_l/hip_rotation_l/value	/jointset/back/lumbar_extension/value	/jointset/patellofemoral_l/patellar_flexion_l/value	/jointset/knee_l/knee_flexion_l/value	/jointset/knee_l/knee_adduction_l/value	/jointset/knee_l/knee_rotation_l/value	/jointset/ankle_l/ankle_angle_l/value	/jointset/subtalar_l/subtalar_angle_l/value	/jointset/ground_pelvis/pelvis_tilt/speed	/jointset/ground_pelvis/pelvis_tx/speed	/jointset/ground_pelvis/pelvis_ty/speed	/jointset/hip_l/hip_flexion_l/speed	/jointset/hip_l/hip_adduction_l/speed	/jointset/hip_l/hip_rotation_l/speed	/jointset/back/lumbar_extension/speed	/jointset/patellofemoral_l/patellar_flexion_l/speed	/jointset/knee_l/knee_flexion_l/speed	/jointset/knee_l/knee_adduction_l/speed	/jointset/knee_l/knee_rotation_l/speed	/jointset/ankle_l/ankle_angle_l/speed	/jointset/subtalar_l/subtalar_angle_l/speed	/forceset/tau_hip_flexion_l	/forceset/tau_hip_adduction_l	/forceset/tau_hip_rotation_l	/forceset/tau_knee_flexion_l	/forceset/tau_ankle_angle_l	/forceset/tau_subtalar_angle_l	/forceset/tau_lumbar_extension	lambda_cid13_p0	lambda_cid13_p1	lambda_cid13_p2	lambda_cid13_p3	lambda_cid13_p4	lambda_cid13_p5	lambda_cid14_p0	/jointset/ground_pelvis/pelvis_tilt/accel	/jointset/ground_pelvis/pelvis_tx/accel	/jointset/ground_pelvis/pelvis_ty/accel	/jointset/hip_l/hip_flexion_l/accel	/jointset/hip_l/hip_adduction_l/accel	/jointset/hip_l/hip_rotation_l/accel	/jointset/back/lumbar_extension/accel	/jointset/patellofemoral_l/patellar_flexion_l/accel	/jointset/knee_l/knee_flexion_l/accel	/jointset/knee_l/knee_adduction_l/accel	/jointset/knee_l/knee_rotation_l/accel	/jointset/ankle_l/ankle_angle_l/accel	/jointset/subtalar_l/subtalar_angle_l/accel	gamma_cid13_p0	gamma_cid13_p1	gamma_cid13_p2	gamma_cid13_p3	gamma_cid13_p4	gamma_cid13_p5	gamma_cid14_p0
1.5	-0.459515176023038	-0.08235515215642283	0.7599883903779003	1.285333567183669	-0.3103913266553191	-0.05002403038957323	-0.3490320490933716	0.6810706342321273	0.6810706342324181	-0.1735852487966263	0.1744771060084671	0.01967952322611973	-0.05309375556997013	0.7610151042892812	0.2813213436080774	0.4970331590462324	-2.381721040399328	0.03694059995675703	-0.5993931733290462	0.5693815958222166	-1.723617918904363	-1.723617918904353	0.00609755525655718	-0.0004904996276553779	-0.1918603578240108	0.01910983648937871	-0.2611828971482978	0.02806973151054813	-0.02056032794372422	-0.1962419018936075	0.1503055383947209	0.03383770823808191	0.2334153159331345	8.807503247255662	-18.89237927383074	5.64165767237006	-6.090008099535732	-613.5588940384663	-50.65026815624068	-28.75960143919022	0.7032410325168358	0.741618946748467	-0.2582712397314877	-1.718952125636126	0.5760926095539579	-0.306528055431758	1.948645924062125	-1.154717003290128	-1.154717003290145	0.03345979640323042	-0.02601657385339208	-0.07638542088666236	0.5619802245744259	2.241718365879834e-07	7.535445325692114e-07	-1.13663126393627e-06	-3.731019664725299e-08	3.185946836286122e-07	-9.823390657213053e-08	2.722530854493415e-07
1.51	-0.4518702470686199	-0.07950507762416993	0.7649448201973718	1.261432707247101	-0.3099941369931459	-0.05603310673243038	-0.3432423846609131	0.6637790512362595	0.6637790512363383	-0.1735244370649991	0.174472329726285	0.01775721905950892	-0.05287564329616844	0.7678622415136183	0.2886623151604675	0.4941497531698081	-2.398115214982758	0.04249946146620601	-0.6023082869438678	0.5884645743344032	-1.734453326222244	-1.734453326222282	0.00603160861921266	-0.0004881700670701655	-0.1925575235702813	0.02451564553043913	-0.2526986722879908	0.027303086194018	-0.02043526252963139	-0.1949333250510117	0.1499506341948057	0.03317627348150726	0.2268318515621655	8.954137400935535	-18.74643755244188	5.75048475595205	-6.033092399074976	-608.7460224609429	-50.97164215150168	-29.73941467734306	0.6591993318334192	0.7256746825373069	-0.3187853195947404	-1.549270342028283	0.5459993547566679	-0.2667295385468798	1.875116364510807	-1.011188520852811	-1.011188520859853	-0.03141240372840338	0.00997905885886234	-0.05992754836841085	0.5301996011083163	1.174423791318724e-07	1.004898859972029e-06	-6.285858410151497e-07	7.171315527427906e-08	2.65711510010849e-07	-2.300639800886877e-08	2.213711400726275e-07
1.52	-0.4441600968890708	-0.07658252569178255	0.7698693339464795	1.237377981521232	-0.309541315429255	-0.06206787951624155	-0.3372644919333901	0.64638646698225	0.6463864669821159	-0.1734652429017321	0.1744669010072777	0.01582923415606127	-0.05260340926050883	0.7740593493156076	0.295816823634975	0.4906499449735187	-2.41249419825946	0.0480669803003052	-0.6045324615202704	0.6070272548351453	-1.74381817053275	-1.743818170532834	0.005774041584864688	-0.0006209869927091262	-0.1929965051913989	0.02993418886095857	-0.2442144474276786	0.02653644087749416	-0.02031019711555177	-0.1936247482084118	0.1495957299948931	0.03251483872493954	0.2202483871911991	9.093042151857118	-18.60150333089955	5.862169150385934	-5.961680166889656	-604.0539629539683	-51.34815632447911	-30.70102644369309	0.5732351480473219	0.7043263311719368	-0.3815517037045222	-1.315913864290442	0.5778240744839924	-0.1683402477479571	1.844586321773215	-0.860604401814834	-0.860604401814834	-0.004864282997470191	-0.05304587109821707	-0.02474859585606974	0.5645270824662276	6.024644986473143e-08	1.170265623150063e-06	-3.626388330069313e-07	1.316394362980396e-07	2.47384639359784e-07	2.683722206419517e-08	1.973238118163043e-07
1.53	-0.4363912842969966	-0.07358949423168532	0.7747557842554812	1.213189732245546	-0.309032798211437	-0.06812210904927109	-0.3311040043366085	0.6289077506920085	0.6289077506919917	-0.1734091909427921	0.1744599821974194	0.01389809339973692	-0.05227695470360783	0.7795808994290311	0.3027434181008739	0.4865373303764231	-2.424783239478719	0.05364201515120248	-0.6062443669410769	0.6249470664760883	-1.751656769176579	-1.751656769176749	0.005446071746581444	-0.000751627862981541	-0.193191361397177	0.0353628158703644	-0.2353774521786372	0.02548842637199084	-0.02023722019153465	-0.1924179167118148	0.1492870224436287	0.03176524998009357	0.2132976150148744	9.252193124394106	-18.42319729095196	5.970096279811083	-5.811682711791995	-599.1807083110604	-51.70491957910567	-31.64019574455171	0.5232890197966059	0.6799471727298169	-0.4414791815535818	-1.129517575800106	0.5480480497406254	-0.1620400942624277	1.747198878467003	-0.7052806804637518	-0.7052806804765396	-0.04509360880813953	0.00873641062669951	-0.01079854400734623	0.5327833368122884	5.567989429837046e-08	1.244270599339263e-06	-3.539213908436683e-07	1.394000794929185e-07	2.657738406108352e-07	4.971046061642423e-08	2.017882642503961e-07
1.54	-0.4285709213884272	-0.0705285725932429	0.7795980358497436	1.188889768892657	-0.3084683896732401	-0.07419134251751343	-0.3247680145647751	0.6113586897983675	0.6113586897984709	-0.1733560847371409	0.1744521188999882	0.01196621519914078	-0.05189606331128587	0.7843694126147271	0.30939485930401	0.4818102020256749	-2.434837013700234	0.05924524437602214	-0.6075332485625022	0.6421276898455175	-1.757887091212279	-1.757887091212533	0.005184890925722158	-0.0008098845085161709	-0.193143994045702	0.04082155594515133	-0.2265404569295966	0.02444041186648249	-0.02016424326746286	-0.1912110852152271	0.1489783148923615	0.03101566123524198	0.2063468428385507	9.403402013677132	-18.24562219706949	6.080563306712828	-5.64268733469257	-594.4289536530921	-52.11787017676891	-32.55271607520337	0.4266277625018485	0.6492956786193483	-0.5044544544350343	-0.868860464741513	0.5834629492684614	-0.08373548787176438	1.696748667470393	-0.5389490801888535	-0.5389490801888538	0.008493520487311775	-0.0385690261506519	0.02369611559455131	0.5705496955424406	4.834346634372565e-08	1.31763482871464e-06	-3.401824077154018e-07	1.481642433923373e-07	2.815732615117177e-07	7.288821029314454e-08	2.047805150968166e-07
